<?xml version="1.0" encoding="UTF-8" standalone="no"?>
<svg
   width="1em"
   height="1em"
   viewBox="0 0 24 24"
   version="1.1"
   id="svg2"
   sodipodi:docname="groupx.svg"
   inkscape:version="1.3 (0e150ed6c4, 2023-07-21)"
   xmlns:inkscape="http://www.inkscape.org/namespaces/inkscape"
   xmlns:sodipodi="http://sodipodi.sourceforge.net/DTD/sodipodi-0.dtd"
   xmlns="http://www.w3.org/2000/svg"
   xmlns:svg="http://www.w3.org/2000/svg">
  <defs
     id="defs2" />
  <sodipodi:namedview
     id="namedview2"
     pagecolor="#ffffff"
     bordercolor="#000000"
     borderopacity="0.25"
     inkscape:showpageshadow="2"
     inkscape:pageopacity="0.0"
     inkscape:pagecheckerboard="0"
     inkscape:deskcolor="#d1d1d1"
     inkscape:zoom="256"
     inkscape:cx="-0.50195312"
     inkscape:cy="-0.50195312"
     inkscape:window-width="2160"
     inkscape:window-height="1346"
     inkscape:window-x="-11"
     inkscape:window-y="-11"
     inkscape:window-maximized="1"
     inkscape:current-layer="svg2" />
  <path
     fill="currentColor"
     d="M16.604 11.048a5.67 5.67 0 0 0 .751-3.44c-.179-1.784-1.175-3.361-2.803-4.44l-1.105 1.666c1.119.742 1.8 1.799 1.918 2.974a3.693 3.693 0 0 1-1.072 2.986l-1.192 1.192l1.618.475C18.951 13.701 19 17.957 19 18h2c0-1.789-.956-5.285-4.396-6.952z"
     id="path1"
     style="fill:#b7cf56;fill-opacity:1" />
  <path
     fill="currentColor"
     d="M9.5 12c2.206 0 4-1.794 4-4s-1.794-4-4-4s-4 1.794-4 4s1.794 4 4 4zm0-6c1.103 0 2 .897 2 2s-.897 2-2 2s-2-.897-2-2s.897-2 2-2zm1.5 7H8c-3.309 0-6 2.691-6 6v1h2v-1c0-2.206 1.794-4 4-4h3c2.206 0 4 1.794 4 4v1h2v-1c0-3.309-2.691-6-6-6z"
     id="path2"
     style="fill:#b7cf56;fill-opacity:1" />
</svg>
