<?xml version="1.0" encoding="UTF-8" standalone="no"?>
<svg
   width="1em"
   height="1em"
   viewBox="0 0 24 24"
   version="1.1"
   id="svg1"
   sodipodi:docname="question-markx.svg"
   inkscape:version="1.3 (0e150ed6c4, 2023-07-21)"
   xmlns:inkscape="http://www.inkscape.org/namespaces/inkscape"
   xmlns:sodipodi="http://sodipodi.sourceforge.net/DTD/sodipodi-0.dtd"
   xmlns="http://www.w3.org/2000/svg"
   xmlns:svg="http://www.w3.org/2000/svg">
  <defs
     id="defs1" />
  <sodipodi:namedview
     id="namedview1"
     pagecolor="#ffffff"
     bordercolor="#000000"
     borderopacity="0.25"
     inkscape:showpageshadow="2"
     inkscape:pageopacity="0.0"
     inkscape:pagecheckerboard="0"
     inkscape:deskcolor="#d1d1d1"
     inkscape:zoom="256"
     inkscape:cx="-0.50195312"
     inkscape:cy="-0.50195312"
     inkscape:window-width="2160"
     inkscape:window-height="1346"
     inkscape:window-x="-11"
     inkscape:window-y="-11"
     inkscape:window-maximized="1"
     inkscape:current-layer="svg1" />
  <path
     fill="currentColor"
     d="M12 4C9.243 4 7 6.243 7 9h2c0-1.654 1.346-3 3-3s3 1.346 3 3c0 1.069-.454 1.465-1.481 2.255c-.382.294-.813.626-1.226 1.038C10.981 13.604 10.995 14.897 11 15v2h2v-2.009c0-.024.023-.601.707-1.284c.32-.32.682-.598 1.031-.867C15.798 12.024 17 11.1 17 9c0-2.757-2.243-5-5-5zm-1 14h2v2h-2z"
     id="path1"
     style="fill:#b7cf56;fill-opacity:1" />
</svg>
